C:\Users\u0088756\Documents\documenten\software\SoftwareProjects\DC_TrackingSimulation\Data\Patient20\InputData\GRF_data.mot
nRows=25
nColumns=19

name C:\Users\u0088756\Documents\documenten\software\SoftwareProjects\DC_TrackingSimulation\Data\Patient20\InputData\GRF_data.mot
datacolumns 19
datarows 25
range 0.2860000000 0.3100000000
endheader
time	ground_force_vx	ground_force_vy	ground_force_vz	ground_force_px	ground_force_py	ground_force_pz	1_ground_force_vx	1_ground_force_vy	1_ground_force_vz	1_ground_force_px	1_ground_force_py	1_ground_force_pz	ground_torque_x	ground_torque_y	ground_torque_z	1_ground_torque_x	1_ground_torque_y	1_ground_torque_z
        0.2860000000	       -1.2004541593	      533.2859023670	       31.0438545580	        0.6281802585	        0.0002591286	       -0.0780968143	        0.0000000000	        0.0000000000	        0.0000000000	        0.3180098752	        0.0002591286	        0.0001608845	        0.0000000000	        3.9357813815	        0.0000000000	        0.0000000000	        0.0000000000	        0.0000000000	
        0.2870000000	       -0.7151470666	      532.0635519535	       31.0035453327	        0.6282076307	        0.0002579453	       -0.0780825010	        0.0000000000	        0.0000000000	        0.0000000000	        0.3190996114	        0.0002579453	        0.0001616792	        0.0000000000	        3.9211227577	        0.0000000000	        0.0000000000	        0.0000000000	        0.0000000000	
        0.2880000000	       -0.2333786852	      530.8623182632	       30.9624615588	        0.6282372158	        0.0002567619	       -0.0780680682	        0.0000000000	        0.0000000000	        0.0000000000	        0.3201893476	        0.0002567619	        0.0001624739	        0.0000000000	        3.9061086577	        0.0000000000	        0.0000000000	        0.0000000000	        0.0000000000	
        0.2890000000	        0.2448988342	      529.6827684158	       30.9205752126	        0.6282691413	        0.0002555786	       -0.0780535050	        0.0000000000	        0.0000000000	        0.0000000000	        0.3212790838	        0.0002555786	        0.0001632686	        0.0000000000	        3.8907531789	        0.0000000000	        0.0000000000	        0.0000000000	        0.0000000000	
        0.2900000000	        0.7197342654	      528.5254509144	       30.8778602524	        0.6283035392	        0.0002543952	       -0.0780388004	        0.0000000000	        0.0000000000	        0.0000000000	        0.3223688200	        0.0002543952	        0.0001640633	        0.0000000000	        3.8750714183	        0.0000000000	        0.0000000000	        0.0000000000	        0.0000000000	
        0.2910000000	        1.1911772055	      527.3908953778	       30.8342926914	        0.6283412783	        0.0002537543	       -0.0780242380	        0.0000000000	        0.0000000000	        0.0000000000	        0.3234592885	        0.0002537543	        0.0001645633	        0.0000000000	        3.8590794576	        0.0000000000	        0.0000000000	        0.0000000000	        0.0000000000	
        0.2920000000	        1.6592779753	      526.2796122892	       30.7898506649	        0.6283817671	        0.0002531134	       -0.0780095117	        0.0000000000	        0.0000000000	        0.0000000000	        0.3245497571	        0.0002531134	        0.0001650633	        0.0000000000	        3.8427943443	        0.0000000000	        0.0000000000	        0.0000000000	        0.0000000000	
        0.2930000000	        2.1240875208	      525.1920927639	       30.7445144909	        0.6284251501	        0.0002524725	       -0.0779946101	        0.0000000000	        0.0000000000	        0.0000000000	        0.3256402256	        0.0002524725	        0.0001655633	        0.0000000000	        3.8262340704	        0.0000000000	        0.0000000000	        0.0000000000	        0.0000000000	
        0.2940000000	        2.5856573172	      524.1288083345	       30.6982667244	        0.6284715751	        0.0002518316	       -0.0779795217	        0.0000000000	        0.0000000000	        0.0000000000	        0.3267306942	        0.0002518316	        0.0001660633	        0.0000000000	        3.8094175475	        0.0000000000	        0.0000000000	        0.0000000000	        0.0000000000	
        0.2950000000	        3.0440392742	      523.0902107541	       30.6510922049	        0.6285211929	        0.0002511906	       -0.0779642352	        0.0000000000	        0.0000000000	        0.0000000000	        0.3278211627	        0.0002511906	        0.0001665632	        0.0000000000	        3.7923645786	        0.0000000000	        0.0000000000	        0.0000000000	        0.0000000000	
        0.2960000000	        3.4992856427	      522.0767318168	       30.6029780981	        0.6285748570	        0.0002510665	       -0.0779489781	        0.0000000000	        0.0000000000	        0.0000000000	        0.3289123314	        0.0002510665	        0.0001668243	        0.0000000000	        3.7750958271	        0.0000000000	        0.0000000000	        0.0000000000	        0.0000000000	
        0.2970000000	        3.9514489244	      521.0887831962	       30.5539139295	        0.6286320229	        0.0002509423	       -0.0779334999	        0.0000000000	        0.0000000000	        0.0000000000	        0.3300035002	        0.0002509423	        0.0001670853	        0.0000000000	        3.7576327829	        0.0000000000	        0.0000000000	        0.0000000000	        0.0000000000	
        0.2980000000	        4.4005817828	      520.1267563006	       30.5038916133	        0.6286928475	        0.0002508181	       -0.0779177896	        0.0000000000	        0.0000000000	        0.0000000000	        0.3310946690	        0.0002508181	        0.0001673463	        0.0000000000	        3.7399977243	        0.0000000000	        0.0000000000	        0.0000000000	        0.0000000000	
        0.2990000000	        4.8467369562	      519.1910221462	       30.4529054726	        0.6287574890	        0.0002506939	       -0.0779018360	        0.0000000000	        0.0000000000	        0.0000000000	        0.3321858378	        0.0002506939	        0.0001676074	        0.0000000000	        3.7222136780	        0.0000000000	        0.0000000000	        0.0000000000	        0.0000000000	
        0.3000000000	        5.2899671731	      518.2819312464	       30.4009522543	        0.6288261062	        0.0002505697	       -0.0778856284	        0.0000000000	        0.0000000000	        0.0000000000	        0.3332770066	        0.0002505697	        0.0001678684	        0.0000000000	        3.7043043754	        0.0000000000	        0.0000000000	        0.0000000000	        0.0000000000	
        0.3010000000	        5.7303250693	      517.3998135180	       30.3480311368	        0.6288994660	        0.0002508631	       -0.0778693469	        0.0000000000	        0.0000000000	        0.0000000000	        0.3343687832	        0.0002508631	        0.0001679387	        0.0000000000	        3.6862942059	        0.0000000000	        0.0000000000	        0.0000000000	        0.0000000000	
        0.3020000000	        6.1678631076	      516.5449782042	       30.2941437308	        0.6289771192	        0.0002511566	       -0.0778527905	        0.0000000000	        0.0000000000	        0.0000000000	        0.3354605599	        0.0002511566	        0.0001680089	        0.0000000000	        3.6682081675	        0.0000000000	        0.0000000000	        0.0000000000	        0.0000000000	
        0.3030000000	        6.6026334994	      515.7177138128	       30.2392940733	        0.6290592235	        0.0002514500	       -0.0778359492	        0.0000000000	        0.0000000000	        0.0000000000	        0.3365523365	        0.0002514500	        0.0001680792	        0.0000000000	        3.6500718137	        0.0000000000	        0.0000000000	        0.0000000000	        0.0000000000	
        0.3040000000	        7.0346881282	      514.9182880714	       30.1834886152	        0.6291459352	        0.0002517434	       -0.0778188135	        0.0000000000	        0.0000000000	        0.0000000000	        0.3376441131	        0.0002517434	        0.0001681495	        0.0000000000	        3.6319111989	        0.0000000000	        0.0000000000	        0.0000000000	        0.0000000000	
        0.3050000000	        7.4640784764	      514.1469478968	       30.1267362019	        0.6292374089	        0.0002520368	       -0.0778013744	        0.0000000000	        0.0000000000	        0.0000000000	        0.3387358897	        0.0002520368	        0.0001682197	        0.0000000000	        3.6137528192	        0.0000000000	        0.0000000000	        0.0000000000	        0.0000000000	
        0.3060000000	        7.8908555529	      513.4039193811	       30.0690480475	        0.6293342866	        0.0002526238	       -0.0777837690	        0.0000000000	        0.0000000000	        0.0000000000	        0.3398281566	        0.0002526238	        0.0001681443	        0.0000000000	        3.5956235523	        0.0000000000	        0.0000000000	        0.0000000000	        0.0000000000	
        0.3070000000	        8.3150698243	      512.6894077918	       30.0104377028	        0.6294362272	        0.0002532109	       -0.0777658435	        0.0000000000	        0.0000000000	        0.0000000000	        0.3409204234	        0.0002532109	        0.0001680690	        0.0000000000	        3.5775505942	        0.0000000000	        0.0000000000	        0.0000000000	        0.0000000000	
        0.3080000000	        8.7367711479	      512.0035975878	       29.9509210171	        0.6295433764	        0.0002537979	       -0.0777475904	        0.0000000000	        0.0000000000	        0.0000000000	        0.3420126902	        0.0002537979	        0.0001679936	        0.0000000000	        3.5595613937	        0.0000000000	        0.0000000000	        0.0000000000	        0.0000000000	
        0.3090000000	        9.1560087075	      511.3466524490	       29.8905160944	        0.6296558758	        0.0002543850	       -0.0777290029	        0.0000000000	        0.0000000000	        0.0000000000	        0.3431049570	        0.0002543850	        0.0001679182	        0.0000000000	        3.5416835857	        0.0000000000	        0.0000000000	        0.0000000000	        0.0000000000	
        0.3100000000	        9.5728309515	      510.7187153216	       29.8292432442	        0.6297738627	        0.0002549720	       -0.0777100747	        0.0000000000	        0.0000000000	        0.0000000000	        0.3441972238	        0.0002549720	        0.0001678428	        0.0000000000	        3.5239449224	        0.0000000000	        0.0000000000	        0.0000000000	        0.0000000000	
